<svg xmlns="http://www.w3.org/2000/svg" width="350" height="350" viewBox="0 0 350 350">
  <g id="_1" data-name="1" transform="translate(-6268 -1569)">
    <g id="Group_12217" data-name="Group 12217" transform="translate(111.494 348)">
      <path id="Path_7907" data-name="Path 7907" d="M92.107,45.5A20.249,20.249,0,1,0,71.859,25.249,20.248,20.248,0,0,0,92.107,45.5Z" transform="translate(6223.505 1287)" fill="none" stroke="#f14b72" stroke-linecap="round" stroke-linejoin="round" stroke-width="10"/>
      <path id="Path_7908" data-name="Path 7908" d="M55.615,105.5,69.389,79l-.425,33.4-.295,23.145-10.4,26.134c-1.032,14.312,19.529,19.063,24.647,1.674l8.368-28.429V115.48l26.822,1.413-.333,22.873c0,11.418,22.972,14.058,22.972,0v-35.7c0-5.152-4.587-11.784-9.744-12.041l-22.741-1.138L108.1,77.326l31.762-20.081c13.222-7.9,3.169-23.729-8.785-17.019-13.345,7.491-29.655,22.167-47.495,17.992-7.633-.372-23.618-9.078-27.864,7.175l-16.727,38.4C36.194,111.138,49.483,121.636,55.615,105.5Z" transform="translate(6223.505 1287)" fill="none" stroke="#fff" stroke-linecap="round" stroke-linejoin="round" stroke-width="10"/>
      <path id="Path_7909" data-name="Path 7909" d="M57.029,213.817l-.376-26.008,51.653.3L107.93,162.1l51.653.3-.376-26.009,51.653.3" transform="translate(6223.505 1287)" fill="none" stroke="aqua" stroke-linecap="round" stroke-linejoin="round" stroke-width="10"/>
      <line id="Line_13" data-name="Line 13" y2="34.491" transform="translate(6331.812 1466.326)" fill="none" stroke="aqua" stroke-linecap="round" stroke-linejoin="round" stroke-width="10"/>
      <line id="Line_14" data-name="Line 14" y2="59.542" transform="translate(6383.087 1441.275)" fill="none" stroke="aqua" stroke-linecap="round" stroke-linejoin="round" stroke-width="10"/>
      <path id="Path_7910" data-name="Path 7910" d="M210.859,136.685v77.132H5" transform="translate(6223.505 1287)" fill="none" stroke="aqua" stroke-linecap="round" stroke-linejoin="round" stroke-width="10"/>
    </g>
    <rect id="Rectangle_80" data-name="Rectangle 80" width="350" height="350" transform="translate(6268 1569)" fill="none"/>
  </g>
</svg>
