<svg xmlns="http://www.w3.org/2000/svg" width="350" height="350" viewBox="0 0 350 350">
  <g id="_2" data-name="2" transform="translate(-6576 -1837)">
    <g id="Group_12223" data-name="Group 12223" transform="translate(-86.4 607.07)">
      <path id="Path_7911" data-name="Path 7911" d="M698.27,131.038l11.831-11.5c20.39-19.815,10.309-46.587-6.117-63.774a75.332,75.332,0,0,0-18-14.07c-8.342-4.554-34.5-11.219-51.605,4.986l-35.5,34.382c-9.582,9.282,14.6,18.261,26.838,6.522l8.944-8.578c13.212-11.66,29.814,11.707,50.508-4.186" transform="translate(6208.437 1287)" fill="none" stroke="aqua" stroke-linecap="round" stroke-linejoin="round" stroke-width="10"/>
      <path id="Path_7912" data-name="Path 7912" d="M545.011,125.671,533.2,114.192c-39.362-38.254,28.813-103.932,68.765-66.083l7.959,7.709" transform="translate(6223.505 1286.929)" fill="none" stroke="#f14b72" stroke-linecap="round" stroke-linejoin="round" stroke-width="10"/>
      <path id="Path_7913" data-name="Path 7913" d="M667.776,100.081l45.715,46.641c9.333,9.521-4.525,27.648-16.5,15.629l-21.429-21.5" transform="translate(6194.21 1274.256)" fill="none" stroke="#f14b72" stroke-linecap="round" stroke-linejoin="round" stroke-width="10"/>
      <path id="Path_7914" data-name="Path 7914" d="M654.165,165.131l23.554,23.552c9.431,9.428,28.522-4.512,16.548-16.539l-23.021-23.12" transform="translate(6196.934 1264.463)" fill="none" stroke="#f14b72" stroke-linecap="round" stroke-linejoin="round" stroke-width="10"/>
      <path id="Path_7915" data-name="Path 7915" d="M645.218,200.547l11.766,11.545c9.522,9.341,28.007-3.992,16.131-16.129" transform="translate(6198.724 1255.071)" fill="none" stroke="#f14b72" stroke-linecap="round" stroke-linejoin="round" stroke-width="10"/>
      <path id="Path_7916" data-name="Path 7916" d="M577.243,135.307l1.257,1.223a10.494,10.494,0,0,1,0,15.052l-16.28,15.852a11.207,11.207,0,0,1-15.464,0L545.5,166.21a10.482,10.482,0,0,1,0-15.052l16.28-15.852A11.189,11.189,0,0,1,577.243,135.307Zm27.387,7.253,1.257,1.223a10.484,10.484,0,0,1,0,15.052l-25.933,25.239a11.206,11.206,0,0,1-15.465,0l-1.257-1.223a10.483,10.483,0,0,1,0-15.05l25.934-25.24A11.182,11.182,0,0,1,604.63,142.56Zm10.6,23.584,1.256,1.223a10.479,10.479,0,0,1,0,15.052l-17.78,17.3a11.2,11.2,0,0,1-15.465,0l-1.256-1.222a10.478,10.478,0,0,1,0-15.051l17.779-17.3A11.183,11.183,0,0,1,615.229,166.144Zm11.431,22.5,1.257,1.223a10.489,10.489,0,0,1,0,15.05L617,215.545a11.209,11.209,0,0,1-15.465,0l-1.257-1.222a10.485,10.485,0,0,1,0-15.052l10.917-10.625A11.187,11.187,0,0,1,626.66,188.646Z" transform="translate(6219.315 1267.828)" fill="none" stroke="aqua" stroke-miterlimit="22.926" stroke-width="10"/>
    </g>
    <rect id="Rectangle_79" data-name="Rectangle 79" width="350" height="350" transform="translate(6576 1837)" fill="none"/>
  </g>
</svg>
