<svg xmlns="http://www.w3.org/2000/svg" width="350" height="350" viewBox="0 0 350 350">
  <g id="_3" data-name="3" transform="translate(-6098 -1524)">
    <g id="Group_12224" data-name="Group 12224" transform="translate(-915.278 312.021)">
      <path id="Path_7917" data-name="Path 7917" d="M871.617,208.26a3.9,3.9,0,0,1-1.409-.264,4.016,4.016,0,0,1-2.221-2.136l-23.3-52.822a4.165,4.165,0,0,1-.1-3.119,4.04,4.04,0,0,1,2.088-2.274l13.951-6.441a3.946,3.946,0,0,1,5.271,2.038l.578,1.311,20.478-6.009a3.956,3.956,0,0,1,4.729,2.242L908.06,177.9a4.13,4.13,0,0,1-1.486,5.113l-17.951,11.735.578,1.311a4.156,4.156,0,0,1,.095,3.118,4.031,4.031,0,0,1-2.087,2.274L873.256,207.9a3.9,3.9,0,0,1-1.639.362M853.591,153.4,873.61,198.79,880.3,195.7l-.356-.809a4.129,4.129,0,0,1,1.486-5.114l17.951-11.734-13.534-30.691-20.478,6.009a3.957,3.957,0,0,1-4.729-2.242l-.357-.809Z" transform="translate(6223.505 1258.038)" fill="#fff"/>
      <path id="Path_7918" data-name="Path 7918" d="M871.617,208.26a3.9,3.9,0,0,1-1.409-.264,4.016,4.016,0,0,1-2.221-2.136l-23.3-52.822a4.165,4.165,0,0,1-.1-3.119,4.04,4.04,0,0,1,2.088-2.274l13.951-6.441a3.946,3.946,0,0,1,5.271,2.038l.578,1.311,20.478-6.009a3.956,3.956,0,0,1,4.729,2.242L908.06,177.9a4.13,4.13,0,0,1-1.486,5.113l-17.951,11.735.578,1.311a4.156,4.156,0,0,1,.095,3.118,4.031,4.031,0,0,1-2.087,2.274L873.256,207.9A3.9,3.9,0,0,1,871.617,208.26ZM853.591,153.4,873.61,198.79,880.3,195.7l-.356-.809a4.129,4.129,0,0,1,1.486-5.114l17.951-11.734-13.534-30.691-20.478,6.009a3.957,3.957,0,0,1-4.729-2.242l-.357-.809Z" transform="translate(6223.505 1258.038)" fill="none" stroke="#fff" stroke-linecap="round" stroke-linejoin="round" stroke-width="3"/>
      <path id="Path_7919" data-name="Path 7919" d="M913.258,160.565,894.309,117.6l106.505-84.854,45.09,102.243Zm-9.107-40.473,13.791,31.272L1034.475,128.9,997.718,45.548Z" transform="translate(6212.334 1281.655)" fill="#fff"/>
      <path id="Path_7920" data-name="Path 7920" d="M913.258,160.565,894.309,117.6l106.505-84.854,45.09,102.243Zm-9.107-40.473,13.791,31.272L1034.475,128.9,997.718,45.548Z" transform="translate(6212.334 1281.655)" fill="none" stroke="#fff" stroke-linecap="round" stroke-linejoin="round" stroke-width="3"/>
      <path id="Path_7921" data-name="Path 7921" d="M1076.431,136.667a12.669,12.669,0,0,1-4.572-.86,12.962,12.962,0,0,1-7.2-6.924L1025.83,40.846a13.355,13.355,0,0,1,6.459-17.478,12.809,12.809,0,0,1,17.082,6.609l38.825,88.035a13.355,13.355,0,0,1-6.459,17.479h0a12.629,12.629,0,0,1-5.306,1.177M1037.592,30.351a4.808,4.808,0,0,0-2.025.448,5.113,5.113,0,0,0-2.474,6.692l38.824,88.037a4.964,4.964,0,0,0,2.759,2.651,4.824,4.824,0,0,0,3.782-.12h0a5.112,5.112,0,0,0,2.474-6.692L1042.107,33.33a4.946,4.946,0,0,0-4.515-2.979" transform="translate(6183.187 1284.013)" fill="#fff"/>
      <path id="Path_7922" data-name="Path 7922" d="M1076.431,136.667a12.669,12.669,0,0,1-4.572-.86,12.962,12.962,0,0,1-7.2-6.924l-3.747-8.5-35.078-79.54a13.355,13.355,0,0,1,6.459-17.478,12.809,12.809,0,0,1,17.082,6.609l38.825,88.035a13.355,13.355,0,0,1-6.459,17.479h0A12.629,12.629,0,0,1,1076.431,136.667ZM1037.592,30.351a4.808,4.808,0,0,0-2.025.448,5.113,5.113,0,0,0-2.474,6.692l38.824,88.037a4.964,4.964,0,0,0,2.759,2.651,4.824,4.824,0,0,0,3.782-.12h0a5.112,5.112,0,0,0,2.474-6.692L1042.107,33.33A4.946,4.946,0,0,0,1037.592,30.351Z" transform="translate(6183.187 1284.013)" fill="none" stroke="#fff" stroke-linecap="round" stroke-linejoin="round" stroke-width="3"/>
      <path id="Path_7923" data-name="Path 7923" d="M874.039,173.567l-8.708-19.744,7.262-3.354,8.708,19.744Z" transform="translate(6218.812 1255.337)" fill="#fff"/>
      <path id="Path_7924" data-name="Path 7924" d="M874.039,173.567l-8.708-19.744,7.262-3.354,8.708,19.744Z" transform="translate(6218.812 1255.337)" fill="none" stroke="#fff" stroke-linecap="round" stroke-linejoin="round" stroke-width="3"/>
      <path id="Path_7925" data-name="Path 7925" d="M936.75,230.286a3.979,3.979,0,0,1-3.633-2.4l-16.064-36.422,7.263-3.353,14.425,32.706,11.8-5.451-12.34-27.98,7.262-3.354,13.979,31.7a4.114,4.114,0,0,1-1.992,5.393l-19.068,8.8a3.884,3.884,0,0,1-1.637.363" transform="translate(6207.249 1247.834)" fill="#fff"/>
      <path id="Path_7926" data-name="Path 7926" d="M936.75,230.286a3.979,3.979,0,0,1-3.633-2.4l-16.064-36.422,7.263-3.353,14.425,32.706,11.8-5.451-12.34-27.98,7.262-3.354,13.979,31.7a4.114,4.114,0,0,1-1.992,5.393l-19.068,8.8A3.884,3.884,0,0,1,936.75,230.286Z" transform="translate(6207.249 1247.834)" fill="none" stroke="#fff" stroke-linecap="round" stroke-linejoin="round" stroke-width="3"/>
      <path id="Path_7927" data-name="Path 7927" d="M974.872,104.033a3.031,3.031,0,0,1-4.309-.537l-1.134-1.49a3.2,3.2,0,0,1,.549-4.407l29.9-23.824a3.031,3.031,0,0,1,4.309.537l1.134,1.49a3.2,3.2,0,0,1-.549,4.407Z" transform="translate(6195.683 1272.631)" fill="aqua"/>
      <path id="Path_7928" data-name="Path 7928" d="M1119.5,74.507a3.051,3.051,0,0,1-4.073-1.54l-.771-1.748a3.181,3.181,0,0,1,1.566-4.144l13.058-6.03a3.051,3.051,0,0,1,4.073,1.54l.771,1.748a3.181,3.181,0,0,1-1.566,4.144Z" transform="translate(6163.132 1275.391)" fill="#f14b72"/>
      <path id="Path_7929" data-name="Path 7929" d="M1095.374,27.528a3.058,3.058,0,0,1-3.973,1.792l-1.66-.642a3.173,3.173,0,0,1-1.82-4.034l5.1-13.807a3.057,3.057,0,0,1,3.972-1.792l1.66.643a3.173,3.173,0,0,1,1.821,4.034Z" transform="translate(6169.093 1287)" fill="#f14b72"/>
      <path id="Path_7930" data-name="Path 7930" d="M1147.876,127.967a3.058,3.058,0,0,1-3.973,1.792l-13.4-5.182a3.172,3.172,0,0,1-1.819-4.034l.665-1.8a3.058,3.058,0,0,1,3.973-1.792l13.394,5.183a3.171,3.171,0,0,1,1.82,4.034Z" transform="translate(6159.979 1262.877)" fill="#f14b72"/>
    </g>
    <rect id="Rectangle_81" data-name="Rectangle 81" width="350" height="350" transform="translate(6098 1524)" fill="none"/>
  </g>
</svg>
