<svg xmlns="http://www.w3.org/2000/svg" xmlns:xlink="http://www.w3.org/1999/xlink" width="350" height="350" viewBox="0 0 350 350">
  <defs>
    <clipPath id="clip-path">
      <rect id="Rectangle_70" data-name="Rectangle 70" width="215.774" height="216.749" fill="none"/>
    </clipPath>
  </defs>
  <g id="_4" data-name="4" transform="translate(-4973 -1112)">
    <rect id="Rectangle_75" data-name="Rectangle 75" width="350" height="350" transform="translate(4973 1112)" fill="none"/>
    <g id="Group_12210" data-name="Group 12210" transform="translate(5040.113 1178.626)">
      <g id="Group_12205" data-name="Group 12205">
        <g id="Group_12204" data-name="Group 12204" clip-path="url(#clip-path)">
          <line id="Line_1" data-name="Line 1" y1="41.742" x2="6.845" transform="translate(93.749 170.344)" fill="none" stroke="aqua" stroke-linecap="round" stroke-linejoin="round" stroke-width="10"/>
        </g>
      </g>
      <line id="Line_2" data-name="Line 2" x1="11.335" y1="0.428" transform="translate(95.716 167.944)" fill="none" stroke="aqua" stroke-linecap="round" stroke-linejoin="round" stroke-width="10"/>
      <line id="Line_3" data-name="Line 3" x1="3.126" y1="11.959" transform="translate(92.59 155.984)" fill="none" stroke="aqua" stroke-linecap="round" stroke-linejoin="round" stroke-width="10"/>
      <path id="Path_7886" data-name="Path 7886" d="M55.325,33.322l55.547,73.443L166.3,33.322Z" transform="translate(-3.73 -2.246)" fill="none" stroke="#f14b72" stroke-linecap="round" stroke-linejoin="round" stroke-width="11"/>
      <path id="Path_7887" data-name="Path 7887" d="M95.492,33.836l16.744,63.238,1.184,6.983.1-.516.1.516,1.183-6.983,17.5-63.584" transform="translate(-6.437 -2.258)" fill="none" stroke="#f14b72" stroke-linecap="round" stroke-linejoin="round" stroke-width="11"/>
      <g id="Group_12207" data-name="Group 12207">
        <g id="Group_12206" data-name="Group 12206" clip-path="url(#clip-path)">
          <path id="Path_7888" data-name="Path 7888" d="M55.325,30.522,67.66,5.5h88.069l10.593,25.022" transform="translate(-3.73 -0.371)" fill="none" stroke="#f14b72" stroke-linecap="round" stroke-linejoin="round" stroke-width="11"/>
          <path id="Path_7889" data-name="Path 7889" d="M75.439,5.626,92.182,28.619l1.184,2.539.1-.187.1.187,1.183-2.539L112.258,5.5" transform="translate(-5.086 -0.371)" fill="none" stroke="#f14b72" stroke-linecap="round" stroke-linejoin="round" stroke-width="11"/>
          <path id="Path_7890" data-name="Path 7890" d="M114.751,5.626l16.744,22.993,1.184,2.539.1-.187.1.187,1.184-2.539L151.57,5.5" transform="translate(-7.736 -0.371)" fill="none" stroke="#f14b72" stroke-linecap="round" stroke-linejoin="round" stroke-width="11"/>
        </g>
      </g>
      <path id="Path_7891" data-name="Path 7891" d="M84.063,122.117,70.15,140.134l16.5,33.411,24.479-24.439Z" transform="translate(-4.729 -8.232)" fill="none" stroke="#fff" stroke-linecap="round" stroke-linejoin="round" stroke-width="10"/>
      <g id="Group_12209" data-name="Group 12209">
        <g id="Group_12208" data-name="Group 12208" clip-path="url(#clip-path)">
          <path id="Path_7892" data-name="Path 7892" d="M218.333,221.614l3.6-46.146v-4.661c0-10.371-10.645-16.358-19.525-18.132-8.11-1.62-31.411-4.536-41.233-11.244l-.6-.09" transform="translate(-10.825 -9.528)" fill="none" stroke="#fff" stroke-linecap="round" stroke-linejoin="round" stroke-width="10"/>
          <line id="Line_4" data-name="Line 4" x1="8.189" y1="41.742" transform="translate(115.18 170.344)" fill="none" stroke="aqua" stroke-linecap="round" stroke-linejoin="round" stroke-width="10"/>
          <line id="Line_5" data-name="Line 5" y1="0.428" x2="11.335" transform="translate(108.724 167.944)" fill="none" stroke="aqua" stroke-linecap="round" stroke-linejoin="round" stroke-width="10"/>
          <line id="Line_6" data-name="Line 6" y1="11.959" x2="3.126" transform="translate(120.059 155.984)" fill="none" stroke="aqua" stroke-linecap="round" stroke-linejoin="round" stroke-width="10"/>
          <path id="Path_7893" data-name="Path 7893" d="M144.347,122.117l13.912,18.018-16.5,33.411-24.479-24.439Z" transform="translate(-7.907 -8.232)" fill="none" stroke="#fff" stroke-linecap="round" stroke-linejoin="round" stroke-width="10"/>
          <path id="Path_7894" data-name="Path 7894" d="M66.359,141.34l-.6.09c-9.822,6.708-33.124,9.625-41.233,11.245C15.645,154.448,5,160.436,5,170.808v4.66l3.6,46.146H207.846" transform="translate(-0.337 -9.528)" fill="none" stroke="#fff" stroke-linecap="round" stroke-linejoin="round" stroke-width="10"/>
        </g>
      </g>
    </g>
  </g>
</svg>
