<svg xmlns="http://www.w3.org/2000/svg" xmlns:xlink="http://www.w3.org/1999/xlink" width="350" height="350" viewBox="0 0 350 350">
  <defs>
    <clipPath id="clip-path">
      <rect id="Rectangle_73" data-name="Rectangle 73" width="242.721" height="239.989" fill="none"/>
    </clipPath>
  </defs>
  <g id="_5" data-name="5" transform="translate(-5715 -1470)">
    <g id="Group_12212" data-name="Group 12212" transform="translate(5769 1525)">
      <g id="Group_12211" data-name="Group 12211" clip-path="url(#clip-path)">
        <path id="Path_7895" data-name="Path 7895" d="M216.319,23.922c0,13.123-9.077,22.263-20.273,22.263s-20.273-9.14-20.273-22.263C175.773-1.7,216.319-.916,216.319,23.922Z" fill="none" stroke="#1f2223" stroke-linecap="round" stroke-linejoin="round" stroke-width="10"/>
        <path id="Path_7896" data-name="Path 7896" d="M237.721,103.621H154.367V80.377a20.577,20.577,0,0,1,20.5-20.5h42.358a20.557,20.557,0,0,1,20.5,20.5Z" fill="none" stroke="#1f2223" stroke-linecap="round" stroke-linejoin="round" stroke-width="10"/>
        <line id="Line_7" data-name="Line 7" y1="24.517" transform="translate(217.044 79.104)" fill="none" stroke="#1f2223" stroke-linecap="round" stroke-linejoin="round" stroke-width="10"/>
        <line id="Line_8" data-name="Line 8" y2="24.517" transform="translate(175.043 79.104)" fill="none" stroke="#1f2223" stroke-linecap="round" stroke-linejoin="round" stroke-width="10"/>
        <path id="Path_7897" data-name="Path 7897" d="M66.951,23.922c0,13.123-9.076,22.263-20.273,22.263S26.4,37.045,26.4,23.922C26.4-1.7,66.951-.916,66.951,23.922Z" fill="none" stroke="#1f2223" stroke-linecap="round" stroke-linejoin="round" stroke-width="10"/>
        <path id="Path_7898" data-name="Path 7898" d="M88.354,103.621H5V80.377a20.576,20.576,0,0,1,20.5-20.5H67.856a20.557,20.557,0,0,1,20.5,20.5Z" fill="none" stroke="#1f2223" stroke-linecap="round" stroke-linejoin="round" stroke-width="10"/>
        <line id="Line_9" data-name="Line 9" y1="24.517" transform="translate(67.677 79.104)" fill="none" stroke="#1f2223" stroke-linecap="round" stroke-linejoin="round" stroke-width="10"/>
        <line id="Line_10" data-name="Line 10" y2="24.517" transform="translate(25.676 79.104)" fill="none" stroke="#1f2223" stroke-linecap="round" stroke-linejoin="round" stroke-width="10"/>
        <path id="Path_7899" data-name="Path 7899" d="M141.477,155.29c0,13.123-9.076,22.263-20.274,22.263s-20.272-9.14-20.272-22.263C100.931,129.671,141.477,130.452,141.477,155.29Z" fill="none" stroke="#1f2223" stroke-linecap="round" stroke-linejoin="round" stroke-width="10"/>
        <path id="Path_7900" data-name="Path 7900" d="M162.88,234.989H79.526V211.745a20.576,20.576,0,0,1,20.5-20.5h42.358a20.556,20.556,0,0,1,20.5,20.5Z" fill="none" stroke="#1f2223" stroke-linecap="round" stroke-linejoin="round" stroke-width="10"/>
        <line id="Line_11" data-name="Line 11" y1="24.517" transform="translate(142.202 210.472)" fill="none" stroke="#1f2223" stroke-linecap="round" stroke-linejoin="round" stroke-width="10"/>
        <line id="Line_12" data-name="Line 12" y2="24.517" transform="translate(100.201 210.472)" fill="none" stroke="#1f2223" stroke-linecap="round" stroke-linejoin="round" stroke-width="10"/>
        <path id="Path_7901" data-name="Path 7901" d="M142.527,28.752A83.514,83.514,0,0,0,95.8,29.837" fill="none" stroke="#1f2223" stroke-linecap="round" stroke-linejoin="round" stroke-width="11"/>
        <path id="Path_7902" data-name="Path 7902" d="M127.962,10.942l18.269,17.81L124.026,41.36" fill="none" stroke="#1f2223" stroke-linecap="round" stroke-linejoin="round" stroke-width="11"/>
        <path id="Path_7903" data-name="Path 7903" d="M180.379,167.9A83.507,83.507,0,0,0,202.8,126.888" fill="none" stroke="aqua" stroke-linecap="round" stroke-linejoin="round" stroke-width="11"/>
        <path id="Path_7904" data-name="Path 7904" d="M203.085,164.191l-24.558,6.917.183-25.535" fill="none" stroke="aqua" stroke-linecap="round" stroke-linejoin="round" stroke-width="11"/>
        <path id="Path_7905" data-name="Path 7905" d="M40.947,131.107a83.515,83.515,0,0,0,24.306,39.927" fill="none" stroke="#f14b72" stroke-linecap="round" stroke-linejoin="round" stroke-width="11"/>
        <path id="Path_7906" data-name="Path 7906" d="M32.806,152.625,39.1,127.9l22.023,12.927" fill="none" stroke="#f14b72" stroke-linecap="round" stroke-linejoin="round" stroke-width="11"/>
      </g>
    </g>
    <rect id="Rectangle_76" data-name="Rectangle 76" width="350" height="350" transform="translate(5715 1470)" fill="none"/>
  </g>
</svg>
