<svg xmlns="http://www.w3.org/2000/svg" xmlns:xlink="http://www.w3.org/1999/xlink" width="350" height="350" viewBox="0 0 350 350">
  <defs>
    <clipPath id="clip-path">
      <rect id="Rectangle_73" data-name="Rectangle 73" width="219.698" height="217.225" fill="none"/>
    </clipPath>
  </defs>
  <g id="_5" data-name="5" transform="translate(-5715 -1470)">
    <g id="Group_12212" data-name="Group 12212" transform="translate(5780.151 1536.387)">
      <g id="Group_12211" data-name="Group 12211" clip-path="url(#clip-path)">
        <path id="Path_7895" data-name="Path 7895" d="M212.473,22.127c0,11.878-8.216,20.151-18.35,20.151s-18.35-8.273-18.35-20.151C175.773-1.062,212.473-.355,212.473,22.127Z" transform="translate(-16.673 -0.474)" fill="none" stroke="#fff" stroke-linecap="round" stroke-linejoin="round" stroke-width="10"/>
        <path id="Path_7896" data-name="Path 7896" d="M229.814,99.472H154.367V78.433A18.625,18.625,0,0,1,172.921,59.88h38.34a18.607,18.607,0,0,1,18.554,18.553Z" transform="translate(-14.642 -5.68)" fill="none" stroke="#fff" stroke-linecap="round" stroke-linejoin="round" stroke-width="10"/>
        <line id="Line_7" data-name="Line 7" y1="22.191" transform="translate(196.456 71.6)" fill="none" stroke="#fff" stroke-linecap="round" stroke-linejoin="round" stroke-width="10"/>
        <line id="Line_8" data-name="Line 8" y2="22.191" transform="translate(158.44 71.601)" fill="none" stroke="#fff" stroke-linecap="round" stroke-linejoin="round" stroke-width="10"/>
        <path id="Path_7897" data-name="Path 7897" d="M63.1,22.127c0,11.878-8.215,20.151-18.35,20.151S26.4,34.005,26.4,22.127C26.4-1.062,63.1-.355,63.1,22.127Z" transform="translate(-2.505 -0.474)" fill="none" stroke="#fff" stroke-linecap="round" stroke-linejoin="round" stroke-width="10"/>
        <path id="Path_7898" data-name="Path 7898" d="M80.448,99.472H5V78.433A18.624,18.624,0,0,1,23.554,59.88h38.34A18.607,18.607,0,0,1,80.448,78.433Z" transform="translate(-0.474 -5.68)" fill="none" stroke="#fff" stroke-linecap="round" stroke-linejoin="round" stroke-width="10"/>
        <line id="Line_9" data-name="Line 9" y1="22.191" transform="translate(61.257 71.6)" fill="none" stroke="#fff" stroke-linecap="round" stroke-linejoin="round" stroke-width="10"/>
        <line id="Line_10" data-name="Line 10" y2="22.191" transform="translate(23.241 71.601)" fill="none" stroke="#fff" stroke-linecap="round" stroke-linejoin="round" stroke-width="10"/>
        <path id="Path_7899" data-name="Path 7899" d="M137.631,153.5c0,11.878-8.215,20.151-18.351,20.151s-18.349-8.273-18.349-20.151C100.931,130.306,137.631,131.013,137.631,153.5Z" transform="translate(-9.574 -12.935)" fill="none" stroke="#fff" stroke-linecap="round" stroke-linejoin="round" stroke-width="10"/>
        <path id="Path_7900" data-name="Path 7900" d="M154.974,230.84H79.526V209.8A18.624,18.624,0,0,1,98.08,191.248h38.34A18.606,18.606,0,0,1,154.974,209.8Z" transform="translate(-7.543 -18.141)" fill="none" stroke="#fff" stroke-linecap="round" stroke-linejoin="round" stroke-width="10"/>
        <line id="Line_11" data-name="Line 11" y1="22.191" transform="translate(128.714 190.508)" fill="none" stroke="#fff" stroke-linecap="round" stroke-linejoin="round" stroke-width="10"/>
        <line id="Line_12" data-name="Line 12" y2="22.191" transform="translate(90.697 190.508)" fill="none" stroke="#fff" stroke-linecap="round" stroke-linejoin="round" stroke-width="10"/>
        <path id="Path_7901" data-name="Path 7901" d="M138.094,28.485a75.592,75.592,0,0,0-42.3.982" transform="translate(-9.087 -2.46)" fill="none" stroke="#fff" stroke-linecap="round" stroke-linejoin="round" stroke-width="11"/>
        <path id="Path_7902" data-name="Path 7902" d="M127.589,10.942l16.536,16.121-20.1,11.412" transform="translate(-11.764 -1.038)" fill="none" stroke="#fff" stroke-linecap="round" stroke-linejoin="round" stroke-width="11"/>
        <path id="Path_7903" data-name="Path 7903" d="M180.379,164.01a75.586,75.586,0,0,0,20.3-37.122" transform="translate(-17.11 -12.036)" fill="none" stroke="aqua" stroke-linecap="round" stroke-linejoin="round" stroke-width="11"/>
        <path id="Path_7904" data-name="Path 7904" d="M200.756,162.425l-22.229,6.261.166-23.113" transform="translate(-16.934 -13.808)" fill="none" stroke="aqua" stroke-linecap="round" stroke-linejoin="round" stroke-width="11"/>
        <path id="Path_7905" data-name="Path 7905" d="M40.947,131.107a75.593,75.593,0,0,0,22,36.14" transform="translate(-3.884 -12.436)" fill="none" stroke="#f14b72" stroke-linecap="round" stroke-linejoin="round" stroke-width="11"/>
        <path id="Path_7906" data-name="Path 7906" d="M32.806,150.28,38.5,127.9l19.934,11.7" transform="translate(-3.112 -12.132)" fill="none" stroke="#f14b72" stroke-linecap="round" stroke-linejoin="round" stroke-width="11"/>
      </g>
    </g>
    <rect id="Rectangle_76" data-name="Rectangle 76" width="350" height="350" transform="translate(5715 1470)" fill="none"/>
  </g>
</svg>
