<svg xmlns="http://www.w3.org/2000/svg" width="350" height="350" viewBox="0 0 350 350">
  <g id="_6" data-name="6" transform="translate(-6833 -2003)">
    <g id="Group_12219" data-name="Group 12219" transform="translate(18.541 342.172)">
      <path id="Path_7931" data-name="Path 7931" d="M798.153,543.346l-13.728-7.353,6.138-14.485a34.672,34.672,0,0,1-5.508-6.723l-15.408,3.169-4.508-14.906,14.583-5.9a34.6,34.6,0,0,1,.86-8.649l-13.138-8.654,7.353-13.728,14.485,6.138a34.636,34.636,0,0,1,6.723-5.509l-3.169-15.407,14.906-4.509,5.9,14.581a34.65,34.65,0,0,1,8.651.859l8.653-13.134,13.727,7.353-6.135,14.481a34.6,34.6,0,0,1,5.512,6.725l15.4-3.167,4.508,14.906-14.576,5.9a34.546,34.546,0,0,1-.861,8.655l13.132,8.651L854.3,526.365l-14.481-6.135a34.6,34.6,0,0,1-6.726,5.51l3.168,15.4-14.906,4.507-5.9-14.578a34.662,34.662,0,0,1-8.652-.862Z" transform="translate(6223.505 1287)" fill="none" stroke="#f14b72" stroke-linecap="round" stroke-linejoin="round" stroke-width="10"/>
      <path id="Path_7932" data-name="Path 7932" d="M810.639,483.3c7.932-2.4,14.454,1.1,16.853,9.026s-1.093,14.455-9.025,16.854-14.455-1.1-16.854-9.026S802.707,485.7,810.639,483.3Z" transform="translate(6223.505 1287)" fill="none" stroke="#f14b72" stroke-linecap="round" stroke-linejoin="round" stroke-width="10"/>
      <path id="Path_7933" data-name="Path 7933" d="M710.012,647.643l-17.9-9.589,8.005-18.893a45.253,45.253,0,0,1-7.183-8.769l-20.1,4.134-5.88-19.442,19.02-7.7a45.033,45.033,0,0,1,1.121-11.281L669.96,564.818l9.59-17.9,18.893,8.005a45.112,45.112,0,0,1,8.768-7.185l-4.133-20.1,19.441-5.88,7.7,19.016A45.207,45.207,0,0,1,741.5,541.9l11.284-17.129,17.906,9.589-8,18.887a45.154,45.154,0,0,1,7.187,8.772l20.09-4.131,5.878,19.44-19.011,7.7a45.05,45.05,0,0,1-1.121,11.288l17.126,11.282-9.589,17.9-18.887-8a45.117,45.117,0,0,1-8.772,7.188l4.131,20.089-19.443,5.879-7.7-19.013a45.2,45.2,0,0,1-11.283-1.125Z" transform="translate(6223.505 1287)" fill="none" stroke="#fff" stroke-linecap="round" stroke-linejoin="round" stroke-width="10"/>
      <path id="Path_7934" data-name="Path 7934" d="M724.466,563.286a23.944,23.944,0,1,1-15.986,29.85A23.943,23.943,0,0,1,724.466,563.286Z" transform="translate(6223.505 1287)" fill="none" stroke="aqua" stroke-linecap="round" stroke-linejoin="round" stroke-width="10"/>
    </g>
    <rect id="Rectangle_78" data-name="Rectangle 78" width="350" height="350" transform="translate(6833 2003)" fill="none"/>
  </g>
</svg>
