<svg xmlns="http://www.w3.org/2000/svg" width="350" height="350" viewBox="0 0 350 350">
  <g id="_7" data-name="7" transform="translate(-7179 -2204)">
    <g id="Group_12222" data-name="Group 12222" transform="translate(109.962 408.778)">
      <g id="Group_12221" data-name="Group 12221" transform="translate(7147.48 1881.647)">
        <path id="Path_7935" data-name="Path 7935" d="M1079.382,606.663H966.054a30.065,30.065,0,0,0-30.065,30.065V700.3a30.065,30.065,0,0,0,30.065,30.065h113.328a30.066,30.066,0,0,0,30.066-30.065V636.728a30.066,30.066,0,0,0-30.066-30.065" transform="translate(-926.162 -596.835)" fill="#f14b72"/>
        <path id="Path_7936" data-name="Path 7936" d="M1085.491,692.6a24.323,24.323,0,0,1-24.324,24.323h-7.005c6.1-7.72,9.7-15.244,8.545-16.461-1.07-1.131-5.456,5.74-19.163,12.039-3.391,1.558-23.221,1.753-30.779-1.72-13.708-6.3-18.094-13.907-19.163-12.776-1.273,1.346,3.26,10.409,10.569,18.919h-5.408A24.324,24.324,0,0,1,974.438,692.6V659.678a24.213,24.213,0,0,1,5.236-15.075,1.151,1.151,0,0,0,.184-.339c1.854-5.342,11.44-12.03,19.261-15.52,12.021-5.363,24.123-5.066,24.5-3.45.35,1.485-9.573,2.451-17.971,7.914a1.166,1.166,0,0,0,.627,2.145h47.365a1.166,1.166,0,0,0,.627-2.145c-8.4-5.463-18.321-6.429-17.97-7.914.381-1.616,12.484-1.913,24.5,3.45,7.817,3.488,17.4,10.174,19.259,15.513a1.173,1.173,0,0,0,.184.339,24.22,24.22,0,0,1,5.242,15.082Z" transform="translate(-933.162 -600.038)" fill="#fff"/>
        <path id="Path_7937" data-name="Path 7937" d="M1087.024,594.647H954.04a30.066,30.066,0,0,0-30.065,30.065v83.226A30.065,30.065,0,0,0,954.04,738h98.882a8.941,8.941,0,0,1,5.945,2.263l35.045,31.193a1.337,1.337,0,0,0,2.211-1.2l-3.829-24.568a8.923,8.923,0,0,1,5.576-9.7,30.073,30.073,0,0,0,19.22-28.048V624.712a30.065,30.065,0,0,0-30.065-30.065h0" transform="translate(-923.975 -594.647)" fill="none" stroke="#fff" stroke-width="7"/>
        <path id="Path_7938" data-name="Path 7938" d="M1067.237,682.325a9.619,9.619,0,1,0,.921,0c-.307-.015-.614-.015-.921,0" transform="translate(-948.403 -610.607)" fill="#f14b72"/>
      </g>
      <path id="Path_7939" data-name="Path 7939" d="M1012.613,682.325a9.618,9.618,0,1,0,.923,0q-.461-.022-.923,0" transform="translate(6209.022 1271.04)" fill="#f14b72"/>
    </g>
    <rect id="Rectangle_77" data-name="Rectangle 77" width="350" height="350" transform="translate(7179 2204)" fill="none"/>
  </g>
</svg>
