<svg xmlns="http://www.w3.org/2000/svg" width="350" height="350" viewBox="0 0 350 350">
  <g id="_7" data-name="7" transform="translate(-7179 -2204)">
    <g id="Group_12222" data-name="Group 12222" transform="translate(88.52 389.353)">
      <g id="Group_12221" data-name="Group 12221">
        <path id="Path_7935" data-name="Path 7935" d="M1111.3,606.663H972.746a36.757,36.757,0,0,0-36.757,36.757v77.72A36.757,36.757,0,0,0,972.746,757.9H1111.3a36.758,36.758,0,0,0,36.758-36.757V643.42a36.758,36.758,0,0,0-36.758-36.757" transform="translate(6223.505 1287)" fill="#f14b72"/>
        <path id="Path_7936" data-name="Path 7936" d="M1110.209,707.812a29.737,29.737,0,0,1-29.738,29.737h-8.564c7.458-9.438,11.854-18.637,10.447-20.125-1.308-1.383-6.67,7.018-23.429,14.719-4.146,1.9-28.389,2.143-37.629-2.1-16.759-7.7-22.121-17-23.429-15.62-1.556,1.646,3.986,12.726,12.921,23.13h-6.612a29.738,29.738,0,0,1-29.738-29.737V667.561a29.6,29.6,0,0,1,6.4-18.43,1.406,1.406,0,0,0,.225-.415c2.267-6.531,13.986-14.708,23.548-18.974,14.7-6.557,29.492-6.194,29.959-4.218.428,1.815-11.7,3-21.971,9.675a1.425,1.425,0,0,0,.767,2.622h57.908a1.425,1.425,0,0,0,.766-2.622c-10.266-6.679-22.4-7.86-21.97-9.675.466-1.976,15.263-2.339,29.959,4.218,9.557,4.264,21.272,12.439,23.545,18.966a1.433,1.433,0,0,0,.225.414,29.614,29.614,0,0,1,6.409,18.439Z" transform="translate(6223.505 1287)" fill="#fff"/>
        <path id="Path_7937" data-name="Path 7937" d="M1123.315,594.647H960.732A36.757,36.757,0,0,0,923.975,631.4v101.75a36.757,36.757,0,0,0,36.757,36.757h120.891a10.931,10.931,0,0,1,7.268,2.767l42.845,38.136a1.635,1.635,0,0,0,2.7-1.473l-4.681-30.036a10.909,10.909,0,0,1,6.817-11.861,36.767,36.767,0,0,0,23.5-34.291V631.4a36.757,36.757,0,0,0-36.757-36.757h0" transform="translate(6223.505 1287)" fill="none" stroke="#000" stroke-width="7"/>
        <path id="Path_7938" data-name="Path 7938" d="M1069.259,682.327a11.759,11.759,0,1,0,1.126,0q-.562-.027-1.126,0" transform="translate(6223.505 1287)" fill="#f14b72"/>
      </g>
      <path id="Path_7939" data-name="Path 7939" d="M1014.635,682.327a11.758,11.758,0,1,0,1.128,0q-.564-.027-1.128,0" transform="translate(6223.505 1287)" fill="#f14b72"/>
    </g>
    <rect id="Rectangle_77" data-name="Rectangle 77" width="350" height="350" transform="translate(7179 2204)" fill="none"/>
  </g>
</svg>
