<?xml version="1.0" encoding="UTF-8"?><svg id="Layer_2" xmlns="http://www.w3.org/2000/svg" viewBox="0 0 144 288"><defs><style>.cls-1{fill:none;stroke:#c3ffb7;stroke-miterlimit:10;stroke-width:12px;}</style></defs><g id="icons"><g><line class="cls-1" x1="72" y1="288" x2="72" y2="234"/><g><line class="cls-1" x1="72" y1="198" x2="72" y2="150"/><line class="cls-1" x1="72" y1="126" x2="72"/><line class="cls-1" x1="6" y1="18" x2="6" y2="54"/><path class="cls-1" d="M72.37,251.54S6,260.54,6,197.54c63,0,66.37,36,66.37,36"/><path class="cls-1" d="M72.37,179.54S6,188.54,6,125.54c63,0,66.37,36,66.37,36"/><path class="cls-1" d="M72.37,107.54S6,116.54,6,53.54c63,0,66.37,36,66.37,36"/><line class="cls-1" x1="138" y1="18" x2="138" y2="54"/><path class="cls-1" d="M72.37,251.54s65.63,9,65.63-54c-63,0-65.63,36-65.63,36"/><path class="cls-1" d="M72.37,179.54s65.63,9,65.63-54c-63,0-65.63,36-65.63,36"/><path class="cls-1" d="M72.37,107.54s65.63,9,65.63-54c-63,0-65.63,36-65.63,36"/></g></g></g></svg>