<?xml version="1.0" encoding="UTF-8"?><svg id="Layer_2" xmlns="http://www.w3.org/2000/svg" viewBox="0 0 288 290.62"><defs><style>.cls-1{fill:none;stroke:#c3ffb7;stroke-miterlimit:10;stroke-width:12px;}</style></defs><g id="icons"><g><g><line class="cls-1" x1="183.43" y1="133.48" x2="216.29" y2="100.62"/><path class="cls-1" d="M30,153.19c0,29.53,23.9,53.43,53.43,53.43"/><path class="cls-1" d="M6,153.19C6,89.12,84,8.62,84,8.62c0,0,78,80.5,78,144.57,0,43.55-34.92,78.86-78,78.86S6,196.75,6,153.19Z"/><path class="cls-1" d="M170.09,100.62c17.37-23.42,33.06-39.43,33.06-39.43,0,0,78.86,80.5,78.86,144.57,0,43.55-35.3,78.86-78.86,78.86-31.82,0-59.24-18.84-71.7-45.99"/><line class="cls-1" x1="209.71" y1="264.91" x2="262.29" y2="212.34"/><line class="cls-1" x1="176.86" y1="258.34" x2="259" y2="176.19"/><line class="cls-1" x1="157.14" y1="238.62" x2="245.86" y2="149.91"/><line class="cls-1" x1="183.43" y1="172.91" x2="229.43" y2="126.91"/></g><line class="cls-1" x1="84" y1="68.62" x2="84" y2="160.62"/><polyline class="cls-1" points="54 127.77 84 158.62 114 128.62"/></g></g></svg>