<?xml version="1.0" encoding="UTF-8"?><svg id="Layer_2" xmlns="http://www.w3.org/2000/svg" viewBox="0 0 286.19 273.71"><defs><style>.cls-1{fill:none;stroke:#c3ffb7;stroke-miterlimit:10;stroke-width:12px;}</style></defs><g id="icons"><g><g><path class="cls-1" d="M151.54,134.11c49.49,49.49,65.98,131.96,65.98,131.96,0,0-82.48-16.49-131.96-65.98-24.3-24.3-39.42-56.81-15.12-81.1,24.29-24.29,56.8-9.18,81.1,15.12Z"/><line class="cls-1" x1="69.07" y1="180.6" x2="100.56" y2="149.11"/><line class="cls-1" x1="91.56" y1="203.09" x2="123.05" y2="171.6"/><line class="cls-1" x1="118.55" y1="221.09" x2="145.54" y2="194.09"/><line class="cls-1" x1="145.54" y1="239.08" x2="168.04" y2="216.59"/><line class="cls-1" x1="69.07" y1="117.62" x2="19.58" y2="68.13"/><line class="cls-1" x1="58.08" y1="139.61" x2="3.09" y2="106.62"/><line class="cls-1" x1="58.07" y1="51.63" x2="91.06" y2="106.62"/></g><path class="cls-1" d="M158.84,47.4c-17.18,9.22-31.03,24.53-38.07,43.83"/><path class="cls-1" d="M214.97,199.11c29.51-6.51,54.23-29.21,61.81-60.56,5.69-23.53,.57-47.13-12.17-65.6"/><path class="cls-1" d="M203.18,95.55c13.96,11.77,43.78,27.39,43.78,27.39,0,0,5.76-23.81-6.27-43.52,25.73-2.18,37.51-16.13,37.51-16.13,0,0-19.97-21.63-45.7-19.46,3.84-15.87-8.19-35.58-8.19-35.58,0,0-19.71,12.04-23.55,27.91-21.89-13.69-49.54-3.58-49.54-3.58,0,0,4.1,17.78,25.99,31.49-19.71,12.02-25.47,35.84-25.47,35.84,0,0,33.66-.26,51.46-4.36Z"/></g></g></svg>