<?xml version="1.0" encoding="UTF-8"?><svg id="Layer_2" xmlns="http://www.w3.org/2000/svg" viewBox="0 0 261.23 273.5"><defs><style>.cls-1{fill:none;stroke:#c3ffb7;stroke-linejoin:round;stroke-width:7px;}.cls-2{fill:#424242;}</style></defs><g id="icons"><g><polyline class="cls-1" points="12.27 64.86 135 126.23 257.73 64.86"/><polygon class="cls-1" points="257.73 199.86 135 261.23 12.27 199.86 12.27 64.86 135 3.5 257.73 64.86 257.73 199.86"/><line class="cls-1" x1="135" y1="126.23" x2="135" y2="261.23"/><circle class="cls-2" cx="36.82" cy="113.95" r="6.14"/><circle class="cls-2" cx="42.95" cy="187.59" r="6.14"/><circle class="cls-2" cx="73.64" cy="181.45" r="6.14"/><circle class="cls-2" cx="92.05" cy="132.36" r="6.14"/><circle class="cls-2" cx="110.45" cy="175.32" r="6.14"/><circle class="cls-2" cx="251.59" cy="267.36" r="6.14"/><circle class="cls-2" cx="239.32" cy="242.82" r="6.14"/><circle class="cls-2" cx="67.5" cy="255.09" r="6.14"/><circle class="cls-2" cx="30.68" cy="261.23" r="6.14"/><circle class="cls-2" cx="6.14" cy="236.68" r="6.14"/><circle class="cls-2" cx="202.5" cy="261.23" r="6.14"/><circle class="cls-2" cx="104.32" cy="218.27" r="6.14"/><circle class="cls-2" cx="55.23" cy="144.64" r="6.14"/></g></g></svg>