<?xml version="1.0" encoding="UTF-8"?><svg id="Layer_2" xmlns="http://www.w3.org/2000/svg" viewBox="0 0 287.99 270.58"><defs><style>.cls-1{fill:none;stroke:#c3ffb7;stroke-miterlimit:10;stroke-width:12px;}</style></defs><g id="icons"><g><path class="cls-1" d="M115.95,264.58c-65.46,0-142.82-47.61-95.21-184.47,101.16-5.95,208.28,77.36,124.97,166.62-65.46-35.7-79.81-109.23-79.81-109.23"/><path class="cls-1" d="M201.09,211.02c67.96-6.88,116.21-87.42,47.71-204.44-34.38,5.56-93.58,20.75-120.51,75.33"/><path class="cls-1" d="M167.05,149.4c53.56-17.85,65.46-101.16,65.46-101.16"/><path class="cls-1" d="M119.9,228.87s-5.95-29.75,17.85-59.51"/><path class="cls-1" d="M90.8,193.17s-7.06-25.92,16.74-55.67"/><path class="cls-1" d="M119.9,228.87s-18.31-14.02-54.01-8.07"/><path class="cls-1" d="M90.8,193.17s-24.91-19.97-54.67-14.02"/><path class="cls-1" d="M188.36,137.5s32.25-5.95,50.11,5.95"/><path class="cls-1" d="M215.11,103.91s17.4-8.07,35.25-2.12"/><path class="cls-1" d="M215.11,101.04s.34-26.02-23.36-38.79"/><path class="cls-1" d="M190.86,137.5s.34-35.8-23.35-48.57"/></g></g></svg>